<?xml version="1.0" encoding="utf-8"?>
<!-- Generator: Adobe Illustrator 24.0.1, SVG Export Plug-In . SVG Version: 6.00 Build 0)  -->
<svg version="1.1" id="Layer_1" xmlns="http://www.w3.org/2000/svg" xmlns:xlink="http://www.w3.org/1999/xlink" x="0px" y="0px"
	 viewBox="0 0 18 18" style="enable-background:new 0 0 18 18;" xml:space="preserve">
<style type="text/css">
	.st0{fill:none;}
	.st1{fill:#646766;}
</style>
<path class="st0" d="M0,0h18v18H0V0z"/>
<path class="st1" d="M13.7,4.3C13.4,4,13,4,12.7,4.3L9,7.9L5.3,4.3C5,4,4.6,4,4.3,4.3C4,4.6,4,5,4.3,5.3L7.9,9l-3.7,3.7
	C4,13,4,13.4,4.3,13.7C4.6,14,5,14,5.3,13.7L9,10.1l3.7,3.7c0.3,0.3,0.8,0.3,1.1,0s0.3-0.8,0-1.1L10.1,9l3.7-3.7
	C14,5,14,4.6,13.7,4.3z"/>
</svg>
