<?xml version="1.0" encoding="utf-8"?>
<!-- Generator: Adobe Illustrator 24.0.1, SVG Export Plug-In . SVG Version: 6.00 Build 0)  -->
<svg version="1.1" id="Layer_1" xmlns="http://www.w3.org/2000/svg" xmlns:xlink="http://www.w3.org/1999/xlink" x="0px" y="0px"
	 viewBox="0 0 18 18" style="enable-background:new 0 0 18 18;" xml:space="preserve">
<style type="text/css">
	.st0{fill:none;}
	.st1{fill:#35594B;}
</style>
<path class="st0" d="M0,0h18v18H0V0z"/>
<path class="st1" d="M9,1.5C4.9,1.5,1.5,4.9,1.5,9s3.4,7.5,7.5,7.5s7.5-3.4,7.5-7.5S13.1,1.5,9,1.5z M9,15c-3.3,0-6-2.7-6-6
	s2.7-6,6-6s6,2.7,6,6S12.3,15,9,15z M8.3,12h1.5v1.5H8.3V12z M9.5,4.5C7.9,4.3,6.5,5.3,6.1,6.6C6,7.1,6.3,7.5,6.8,7.5h0.1
	c0.3,0,0.6-0.2,0.7-0.5c0.2-0.7,1-1.1,1.7-1c0.7,0.1,1.2,0.8,1.2,1.6c-0.1,1-1.2,1.2-1.8,2.2c0,0,0,0,0,0c0,0,0,0,0,0
	c-0.1,0.1-0.1,0.2-0.2,0.4c0,0,0,0,0,0.1c0,0,0,0,0,0.1c-0.1,0.3-0.1,0.6-0.1,0.9h1.5c0-0.3,0.1-0.6,0.2-0.8c0,0,0,0,0-0.1
	c0.1-0.1,0.1-0.2,0.2-0.3c0,0,0,0,0,0c0.1-0.1,0.2-0.2,0.2-0.3c0.7-0.7,1.7-1.2,1.5-2.7C11.8,5.8,10.8,4.7,9.5,4.5z"/>
</svg>
