<?xml version="1.0" encoding="utf-8"?>
<!-- Generator: Adobe Illustrator 24.0.1, SVG Export Plug-In . SVG Version: 6.00 Build 0)  -->
<svg version="1.2" baseProfile="tiny" id="Layer_1" xmlns="http://www.w3.org/2000/svg" xmlns:xlink="http://www.w3.org/1999/xlink"
	 x="0px" y="0px" viewBox="0 0 18 18" xml:space="preserve">
<path fill="none" d="M0,0h18v18H0V0z"/>
<path fill="#35594B" d="M3,4.5H1.5V15c0,0.8,0.7,1.5,1.5,1.5h10.5V15H3V4.5z M15,1.5H6C5.2,1.5,4.5,2.2,4.5,3v9
	c0,0.8,0.7,1.5,1.5,1.5h9c0.8,0,1.5-0.7,1.5-1.5V3C16.5,2.2,15.8,1.5,15,1.5z M14.3,8.3h-3v3H9.8v-3h-3V6.8h3v-3h1.5v3h3V8.3z"/>
</svg>
