<?xml version="1.0" encoding="utf-8"?>
<!-- Generator: Adobe Illustrator 24.0.1, SVG Export Plug-In . SVG Version: 6.00 Build 0)  -->
<svg version="1.1" id="Layer_1" xmlns="http://www.w3.org/2000/svg" xmlns:xlink="http://www.w3.org/1999/xlink" x="0px" y="0px"
	 viewBox="0 0 18 18" style="enable-background:new 0 0 18 18;" xml:space="preserve">
<style type="text/css">
	.st0{fill:none;}
	.st1{fill:#35594B;}
</style>
<path class="st0" d="M0,0h18v18H0V0z"/>
<path class="st1" d="M16.5,2.3H5.3c-0.5,0-0.9,0.3-1.2,0.7L0,9l4.1,6.1c0.3,0.4,0.7,0.7,1.2,0.7h11.3c0.8,0,1.5-0.7,1.5-1.5V3.8
	C18,2.9,17.3,2.3,16.5,2.3z M14.3,11.7l-1.1,1.1l-2.7-2.7l-2.7,2.7l-1.1-1.1L9.4,9L6.8,6.3l1.1-1.1l2.7,2.7l2.7-2.7l1.1,1.1L11.6,9
	L14.3,11.7z"/>
</svg>
