<?xml version="1.0" encoding="utf-8"?>
<!-- Generator: Adobe Illustrator 24.0.1, SVG Export Plug-In . SVG Version: 6.00 Build 0)  -->
<svg version="1.1" id="Layer_1" xmlns="http://www.w3.org/2000/svg" xmlns:xlink="http://www.w3.org/1999/xlink" x="0px" y="0px"
	 viewBox="0 0 18 18" style="enable-background:new 0 0 18 18;" xml:space="preserve">
<style type="text/css">
	.st0{fill:none;}
	.st1{fill:#35594B;}
</style>
<path class="st0" d="M0,0h18v18H0V0z"/>
<path class="st1" d="M5.3,13.5c-0.8,0-1.5,0.7-1.5,1.5s0.7,1.5,1.5,1.5s1.5-0.7,1.5-1.5S6.1,13.5,5.3,13.5z M0.8,1.5V3h1.5l2.7,5.7
	l-1,1.8c-0.1,0.2-0.2,0.5-0.2,0.7c0,0.8,0.7,1.5,1.5,1.5h9v-1.5H5.6c-0.1,0-0.2-0.1-0.2-0.2l0-0.1l0.7-1.2h5.6
	c0.6,0,1.1-0.3,1.3-0.8l2.7-4.9c0.1-0.1,0.1-0.2,0.1-0.4C15.8,3.3,15.4,3,15,3H3.9L3.2,1.5C3.2,1.5,0.8,1.5,0.8,1.5z M12.8,13.5
	c-0.8,0-1.5,0.7-1.5,1.5s0.7,1.5,1.5,1.5c0.8,0,1.5-0.7,1.5-1.5S13.6,13.5,12.8,13.5z"/>
</svg>
