<svg xmlns="http://www.w3.org/2000/svg" fill="black" width="24" height="24"><rect id="backgroundrect" width="100%" height="100%" x="0" y="0" fill="none" stroke="none"/><g class="currentLayer" style=""><title>Layer 1</title><path d="M0,0 h24 v24 H0 z" fill="none" id="svg_1" class=""/><path d="M7.58,4.08 L6.15,2.6500000000000004 C3.75,4.48 2.17,7.3 2.03,10.5 h2 c0.15000000000000002,-2.6500000000000004 1.51,-4.97 3.55,-6.42 zm12.39,6.42 h2 c-0.15000000000000002,-3.2 -1.73,-6.02 -4.12,-7.85 l-1.42,1.4300000000000002 c2.02,1.45 3.39,3.77 3.54,6.42 zM18,11 c0,-3.07 -1.6400000000000001,-5.640000000000001 -4.5,-6.32 V4 c0,-0.8300000000000001 -0.6700000000000002,-1.5 -1.5,-1.5 s-1.5,0.6700000000000002 -1.5,1.5 v0.6800000000000002 C7.63,5.36 6,7.92 6,11 v5 l-2,2 v1 h16 v-1 l-2,-2 v-5 zm-6,11 c0.14,0 0.27,-0.010000000000000002 0.4,-0.04000000000000001 c0.6500000000000001,-0.14 1.18,-0.5800000000000001 1.44,-1.18 c0.1,-0.24000000000000002 0.15000000000000002,-0.5 0.15000000000000002,-0.78 h-4 c0.010000000000000002,1.1 0.9,2 2.01,2 z" id="svg_2" class="selected" fill-opacity="1" fill="#35594b"/></g></svg>